<svg width="512" height="512" viewBox="0 0 512 512" fill="none" xmlns="http://www.w3.org/2000/svg">
<path d="M137.152 51.4773C139.842 48.2672 141.165 44.1306 140.839 39.9554C140.513 35.7802 138.563 31.8993 135.407 29.1459C132.252 26.3925 128.142 24.986 123.962 25.2285C119.781 25.4709 115.861 27.343 113.045 30.4427L85.4826 62.016C69.8535 79.9268 61.0184 102.762 60.5226 126.528L59.3066 184.533C59.2632 186.634 59.6341 188.724 60.398 190.681C61.162 192.639 62.3041 194.427 63.7591 195.944C65.2141 197.46 66.9536 198.675 68.8782 199.52C70.8028 200.364 72.8748 200.821 74.976 200.864C77.0771 200.907 79.1663 200.537 81.1241 199.773C83.0819 199.009 84.8701 197.867 86.3865 196.412C87.903 194.956 89.118 193.217 89.9622 191.292C90.8064 189.368 91.2632 187.296 91.3066 185.195L92.5013 127.211C92.8436 110.949 98.8922 95.325 109.589 83.072L137.152 51.4773Z" fill="white"/>
<path d="M89.8488 26.2757C92.5384 23.0656 93.8622 18.9289 93.536 14.7538C93.2098 10.5786 91.2595 6.69768 88.104 3.94427C84.9485 1.19085 80.8392 -0.215593 76.6583 0.0268584C72.4774 0.269309 68.5582 2.14133 65.7421 5.24104L38.1794 36.8144C22.5502 54.7251 13.7151 77.5604 13.2194 101.326L12.0034 159.332C11.96 161.433 12.3308 163.522 13.0948 165.48C13.8588 167.438 15.0009 169.226 16.4559 170.742C17.9109 172.259 19.6504 173.474 21.575 174.318C23.4996 175.162 25.5716 175.619 27.6727 175.662C29.7739 175.706 31.863 175.335 33.8209 174.571C35.7787 173.807 37.5669 172.665 39.0833 171.21C40.5998 169.755 41.8148 168.015 42.659 166.091C43.5031 164.166 43.96 162.094 44.0034 159.993L45.1981 102.009C45.5403 85.7472 51.589 70.1234 62.2861 57.8704L89.8488 26.2757Z" fill="white"/>
<path fill-rule="evenodd" clip-rule="evenodd" d="M133.056 164.267C134.489 141.443 144.566 120.023 161.236 104.368C177.906 88.7124 199.915 79.9985 222.784 80H234.667V64C234.667 58.3421 236.914 52.9158 240.915 48.9151C244.916 44.9143 250.342 42.6667 256 42.6667C261.658 42.6667 267.084 44.9143 271.085 48.9151C275.086 52.9158 277.333 58.3421 277.333 64V80H289.216C312.085 79.9985 334.094 88.7124 350.764 104.368C367.434 120.023 377.511 141.443 378.944 164.267L383.659 239.659C385.455 268.404 395.107 296.106 411.563 319.744C414.963 324.631 417.04 330.314 417.593 336.241C418.146 342.169 417.155 348.138 414.718 353.569C412.28 359 408.479 363.708 403.683 367.235C398.887 370.762 393.26 372.988 387.349 373.696L314.667 382.4V405.333C314.667 420.893 308.486 435.815 297.484 446.817C286.482 457.819 271.559 464 256 464C240.441 464 225.519 457.819 214.516 446.817C203.514 435.815 197.333 420.893 197.333 405.333V382.4L124.651 373.675C118.743 372.965 113.12 370.739 108.327 367.213C103.535 363.687 99.7352 358.982 97.2982 353.554C94.8613 348.126 93.8697 342.161 94.4197 336.236C94.9698 330.312 97.0428 324.63 100.437 319.744C116.892 296.105 126.544 268.404 128.341 239.659L133.056 164.288V164.267ZM222.784 112C208.055 111.998 193.879 117.61 183.142 127.693C172.405 137.776 165.915 151.572 164.992 166.272L160.299 241.664C158.13 276.245 146.516 309.568 126.72 338.005C126.474 338.359 126.324 338.77 126.283 339.199C126.243 339.627 126.315 340.059 126.491 340.452C126.667 340.845 126.942 341.186 127.288 341.441C127.635 341.696 128.042 341.858 128.469 341.909L208.192 351.488C239.957 355.285 272.043 355.285 303.808 351.488L383.531 341.909C383.958 341.858 384.365 341.696 384.712 341.441C385.058 341.186 385.333 340.845 385.509 340.452C385.685 340.059 385.757 339.627 385.717 339.199C385.676 338.77 385.526 338.359 385.28 338.005C365.491 309.566 353.884 276.243 351.723 241.664L347.008 166.272C346.085 151.572 339.595 137.776 328.858 127.693C318.121 117.61 303.945 111.998 289.216 112H222.784ZM256 432C241.28 432 229.333 420.053 229.333 405.333V389.333H282.667V405.333C282.667 420.053 270.72 432 256 432Z" fill="white"/>
<path d="M376.384 28.9067C373.188 31.6965 371.231 35.6414 370.943 39.874C370.655 44.1065 372.059 48.2802 374.848 51.4773L402.411 83.0507C413.105 95.3123 419.146 110.944 419.477 127.211L420.693 185.173C420.781 189.417 422.551 193.452 425.613 196.39C428.676 199.329 432.78 200.93 437.024 200.843C441.267 200.755 445.302 198.985 448.241 195.923C451.179 192.86 452.781 188.755 452.693 184.512L451.477 126.528C450.982 102.762 442.146 79.9268 426.517 62.016L398.955 30.4427C396.165 27.2467 392.22 25.2895 387.987 25.0015C383.755 24.7134 379.581 26.1181 376.384 28.9067Z" fill="white"/>
<path d="M423.478 3.94216C420.282 6.732 418.325 10.6769 418.037 14.9095C417.749 19.142 419.154 23.3157 421.942 26.5128L449.505 58.0862C460.199 70.3478 466.24 85.9797 466.571 102.246L467.787 160.209C467.875 164.452 469.645 168.487 472.708 171.426C475.77 174.364 479.875 175.966 484.118 175.878C488.362 175.79 492.396 174.021 495.335 170.958C498.274 167.895 499.875 163.791 499.787 159.548L498.571 101.563C498.076 77.7975 489.241 54.9623 473.611 37.0515L446.049 5.47816C443.259 2.28218 439.314 0.32499 435.082 0.0369523C430.849 -0.251086 426.675 1.15361 423.478 3.94216Z" fill="white"/>
</svg>
