<svg width="24" height="24" viewBox="0 0 24 24" fill="none" xmlns="http://www.w3.org/2000/svg">
<g clip-path="url(#clip0_1_39)">
<path d="M19 4H17V3C17 2.73478 16.8946 2.48043 16.7071 2.29289C16.5196 2.10536 16.2652 2 16 2C15.7348 2 15.4804 2.10536 15.2929 2.29289C15.1054 2.48043 15 2.73478 15 3V4H9V3C9 2.73478 8.89464 2.48043 8.70711 2.29289C8.51957 2.10536 8.26522 2 8 2C7.73478 2 7.48043 2.10536 7.29289 2.29289C7.10536 2.48043 7 2.73478 7 3V4H5C4.20435 4 3.44129 4.31607 2.87868 4.87868C2.31607 5.44129 2 6.20435 2 7V19C2 19.7956 2.31607 20.5587 2.87868 21.1213C3.44129 21.6839 4.20435 22 5 22H19C19.7956 22 20.5587 21.6839 21.1213 21.1213C21.6839 20.5587 22 19.7956 22 19V7C22 6.20435 21.6839 5.44129 21.1213 4.87868C20.5587 4.31607 19.7956 4 19 4ZM20 19C20 19.2652 19.8946 19.5196 19.7071 19.7071C19.5196 19.8946 19.2652 20 19 20H5C4.73478 20 4.48043 19.8946 4.29289 19.7071C4.10536 19.5196 4 19.2652 4 19V12H20V19ZM20 10H4V7C4 6.73478 4.10536 6.48043 4.29289 6.29289C4.48043 6.10536 4.73478 6 5 6H7V7C7 7.26522 7.10536 7.51957 7.29289 7.70711C7.48043 7.89464 7.73478 8 8 8C8.26522 8 8.51957 7.89464 8.70711 7.70711C8.89464 7.51957 9 7.26522 9 7V6H15V7C15 7.26522 15.1054 7.51957 15.2929 7.70711C15.4804 7.89464 15.7348 8 16 8C16.2652 8 16.5196 7.89464 16.7071 7.70711C16.8946 7.51957 17 7.26522 17 7V6H19C19.2652 6 19.5196 6.10536 19.7071 6.29289C19.8946 6.48043 20 6.73478 20 7V10Z" fill="#1D1D1D"/>
<path d="M-20.222 -102.385C-19.8807 -111.515 -16.894 -118.555 -11.262 -123.505C-5.63 -128.454 2.00733 -130.929 11.65 -130.929C18.05 -130.929 23.5113 -129.819 28.034 -127.601C32.642 -125.382 36.098 -122.353 38.402 -118.513C40.7913 -114.673 41.986 -110.363 41.986 -105.585C41.986 -99.9525 40.578 -95.3445 37.762 -91.7605C34.946 -88.2618 31.6607 -85.8725 27.906 -84.5925V-84.0805C32.77 -82.4592 36.61 -79.7712 39.426 -76.0165C42.242 -72.2618 43.65 -67.4405 43.65 -61.5525C43.65 -56.2618 42.4127 -51.5685 39.938 -47.4725C37.5487 -43.4618 34.0073 -40.3045 29.314 -38.0005C24.706 -35.6965 19.202 -34.5445 12.802 -34.5445C2.562 -34.5445 -5.63 -37.0618 -11.774 -42.0965C-17.8327 -47.1312 -21.0327 -54.7258 -21.374 -64.8805H-0.125999C-0.0406659 -61.1258 1.026 -58.1392 3.074 -55.9205C5.122 -53.7872 8.10867 -52.7205 12.034 -52.7205C15.362 -52.7205 17.922 -53.6592 19.714 -55.5365C21.5913 -57.4992 22.53 -60.0592 22.53 -63.2165C22.53 -67.3125 21.2073 -70.2565 18.562 -72.0485C16.002 -73.9258 11.8633 -74.8645 6.146 -74.8645H2.05V-92.6565H6.146C10.498 -92.6565 13.9967 -93.3818 16.642 -94.8325C19.3727 -96.3685 20.738 -99.0565 20.738 -102.896C20.738 -105.969 19.8847 -108.358 18.178 -110.065C16.4713 -111.771 14.1247 -112.625 11.138 -112.625C7.89533 -112.625 5.46334 -111.643 3.842 -109.681C2.306 -107.718 1.41 -105.286 1.154 -102.385H-20.222ZM-8.6065 83.5995V63.2475H26.8495V156.688H4.0655V83.5995H-8.6065Z" fill="#1D1D1D"/>
</g>
<defs>
<clipPath id="clip0_1_39">
<rect width="24" height="24" fill="white"/>
</clipPath>
</defs>
</svg>
