<svg width="512" height="512" viewBox="0 0 512 512" fill="none" xmlns="http://www.w3.org/2000/svg">
<g clip-path="url(#clip0_1_27)">
<path d="M256 0C205.368 0 155.873 15.0141 113.774 43.1438C71.6751 71.2734 38.863 111.255 19.4869 158.033C0.110921 204.811 -4.95873 256.284 4.91908 305.943C14.7969 355.602 39.1785 401.217 74.9808 437.019C110.783 472.821 156.398 497.203 206.057 507.081C255.716 516.959 307.189 511.889 353.967 492.513C400.745 473.137 440.727 440.325 468.856 398.226C496.986 356.127 512 306.632 512 256C511.928 188.127 484.934 123.054 436.94 75.0598C388.946 27.066 323.873 0.0716755 256 0ZM256 472.615C213.158 472.615 171.277 459.911 135.655 436.109C100.033 412.307 72.2687 378.476 55.8736 338.895C39.4785 299.314 35.1888 255.76 43.5469 213.74C51.9051 171.721 72.5357 133.124 102.83 102.83C133.124 72.5356 171.721 51.905 213.74 43.5468C255.76 35.1887 299.314 39.4784 338.895 55.8735C378.476 72.2686 412.307 100.033 436.109 135.655C459.911 171.277 472.615 213.157 472.615 256C472.55 313.43 449.707 368.489 409.098 409.098C368.489 449.707 313.43 472.55 256 472.615ZM413.538 256C413.538 261.223 411.464 266.231 407.771 269.925C404.078 273.618 399.069 275.692 393.846 275.692H303.532L368.394 340.529C370.223 342.359 371.675 344.531 372.665 346.921C373.655 349.312 374.165 351.874 374.165 354.461C374.165 357.049 373.655 359.611 372.665 362.002C371.675 364.392 370.223 366.564 368.394 368.394C366.564 370.223 364.392 371.675 362.002 372.665C359.611 373.655 357.049 374.165 354.462 374.165C351.874 374.165 349.312 373.655 346.921 372.665C344.531 371.675 342.359 370.223 340.529 368.394L242.068 269.932C239.311 267.178 237.433 263.668 236.671 259.846C235.91 256.024 236.3 252.062 237.792 248.462C239.284 244.862 241.81 241.785 245.051 239.621C248.293 237.458 252.103 236.305 256 236.308H393.846C399.069 236.308 404.078 238.382 407.771 242.075C411.464 245.768 413.538 250.777 413.538 256Z" fill="#1D1D1D"/>
</g>
<defs>
<clipPath id="clip0_1_27">
<rect width="512" height="512" fill="white"/>
</clipPath>
</defs>
</svg>
